<svg width="120" height="140" viewBox="0 0 120 140" fill="none" xmlns="http://www.w3.org/2000/svg">
  <!-- Иконка (64x64) centered -->
  <g transform="translate(28, 10)">
    <!-- 4 панели -->
    <path d="M0 0 L32 0 L32 32 L0 32 Z" fill="#1e3a5f"/>
    <path d="M32 0 L64 0 L64 32 L32 32 Z" fill="#152942"/>
    <path d="M0 32 L32 32 L32 64 L0 64 Z" fill="#152942"/>
    <path d="M32 32 L64 32 L64 64 L32 64 Z" fill="#1e3a5f"/>

    <!-- Разделительные линии -->
    <line x1="32" y1="0" x2="32" y2="64" stroke="#0d1f33" stroke-width="1"/>
    <line x1="0" y1="32" x2="64" y2="32" stroke="#0d1f33" stroke-width="1"/>

    <!-- Нейронные связи -->
    <line x1="6" y1="6" x2="13" y2="13" stroke="#f7941d" stroke-width="2"/>
    <line x1="26" y1="6" x2="19" y2="13" stroke="#f7941d" stroke-width="2"/>
    <line x1="6" y1="26" x2="13" y2="19" stroke="#f7941d" stroke-width="2"/>
    <line x1="26" y1="26" x2="19" y2="19" stroke="#f7941d" stroke-width="2"/>

    <circle cx="6" cy="6" r="4" fill="#f7941d"/>
    <circle cx="26" cy="6" r="4" fill="#f7941d"/>
    <circle cx="6" cy="26" r="4" fill="#f7941d"/>
    <circle cx="26" cy="26" r="4" fill="#f7941d"/>
    <circle cx="16" cy="16" r="5" fill="#ffffff"/>

    <!-- Золотая рамка -->
    <rect x="-2" y="-2" width="68" height="68" rx="3" stroke="#f7941d" stroke-width="2" fill="none"/>
  </g>

  <!-- SGC -->
  <text x="60" y="100" text-anchor="middle" fill="#f7941d" font-size="22" font-weight="700" font-family="system-ui, -apple-system, sans-serif">SGC</text>

  <!-- Legal AI -->
  <text x="60" y="125" text-anchor="middle" fill="#f7941d" font-size="16" font-weight="500" font-family="system-ui, -apple-system, sans-serif">Legal AI</text>
</svg>
