<svg width="64" height="64" viewBox="0 0 64 64" fill="none" xmlns="http://www.w3.org/2000/svg">
  <!-- 4 панели книги -->
  <path d="M6 6 L32 6 L32 32 L6 32 Z" fill="#1e3a5f"/>
  <path d="M32 6 L58 6 L58 32 L32 32 Z" fill="#152942"/>
  <path d="M6 32 L32 32 L32 58 L6 58 Z" fill="#152942"/>
  <path d="M32 32 L58 32 L58 58 L32 58 Z" fill="#1e3a5f"/>

  <!-- Разделительные линии -->
  <line x1="32" y1="6" x2="32" y2="58" stroke="#0d1f33" stroke-width="1"/>
  <line x1="6" y1="32" x2="58" y2="32" stroke="#0d1f33" stroke-width="1"/>

  <!-- Нейронные связи -->
  <line x1="12" y1="12" x2="17" y2="17" stroke="#f7941d" stroke-width="2"/>
  <line x1="26" y1="12" x2="21" y2="17" stroke="#f7941d" stroke-width="2"/>
  <line x1="12" y1="26" x2="17" y2="21" stroke="#f7941d" stroke-width="2"/>
  <line x1="26" y1="26" x2="21" y2="21" stroke="#f7941d" stroke-width="2"/>

  <circle cx="12" cy="12" r="3.5" fill="#f7941d"/>
  <circle cx="26" cy="12" r="3.5" fill="#f7941d"/>
  <circle cx="12" cy="26" r="3.5" fill="#f7941d"/>
  <circle cx="26" cy="26" r="3.5" fill="#f7941d"/>
  <circle cx="19" cy="19" r="4" fill="#ffffff"/>

  <!-- Золотая рамка -->
  <rect x="5" y="5" width="54" height="54" rx="3" stroke="#f7941d" stroke-width="2" fill="none"/>
</svg>
