<svg width="500" height="56" viewBox="0 0 500 56" fill="none" xmlns="http://www.w3.org/2000/svg">
  <!-- Иконка (48x48) -->
  <g transform="translate(4, 4)">
    <!-- 4 панели -->
    <path d="M0 0 L24 0 L24 24 L0 24 Z" fill="#1e3a5f"/>
    <path d="M24 0 L48 0 L48 24 L24 24 Z" fill="#152942"/>
    <path d="M0 24 L24 24 L24 48 L0 48 Z" fill="#152942"/>
    <path d="M24 24 L48 24 L48 48 L24 48 Z" fill="#1e3a5f"/>

    <!-- Разделительные линии -->
    <line x1="24" y1="0" x2="24" y2="48" stroke="#0d1f33" stroke-width="1"/>
    <line x1="0" y1="24" x2="48" y2="24" stroke="#0d1f33" stroke-width="1"/>

    <!-- Нейронные связи в левой верхней панели -->
    <line x1="5" y1="5" x2="10" y2="10" stroke="#f7941d" stroke-width="1.5"/>
    <line x1="19" y1="5" x2="14" y2="10" stroke="#f7941d" stroke-width="1.5"/>
    <line x1="5" y1="19" x2="10" y2="14" stroke="#f7941d" stroke-width="1.5"/>
    <line x1="19" y1="19" x2="14" y2="14" stroke="#f7941d" stroke-width="1.5"/>

    <circle cx="5" cy="5" r="2.5" fill="#f7941d"/>
    <circle cx="19" cy="5" r="2.5" fill="#f7941d"/>
    <circle cx="5" cy="19" r="2.5" fill="#f7941d"/>
    <circle cx="19" cy="19" r="2.5" fill="#f7941d"/>
    <circle cx="12" cy="12" r="3" fill="#ffffff"/>

    <!-- Золотая рамка -->
    <rect x="-1" y="-1" width="50" height="50" rx="2" stroke="#f7941d" stroke-width="1.5" fill="none"/>
  </g>

  <!-- SGC -->
  <text x="64" y="26" fill="#f7941d" font-size="20" font-weight="700" font-family="system-ui, -apple-system, sans-serif">SGC</text>

  <!-- Legal AI -->
  <text x="64" y="44" fill="#f7941d" font-size="14" font-weight="500" font-family="system-ui, -apple-system, sans-serif">Legal AI</text>

  <!-- Разделитель -->
  <line x1="138" y1="8" x2="138" y2="48" stroke="#f7941d" stroke-width="2"/>

  <!-- Дирекция по правовым вопросам -->
  <text x="150" y="26" fill="#ffffff" font-size="14" font-weight="600" font-family="system-ui, -apple-system, sans-serif">Дирекция по правовым вопросам</text>

  <!-- Сибирская генерирующая компания -->
  <text x="150" y="44" fill="#8899aa" font-size="12" font-weight="400" font-family="system-ui, -apple-system, sans-serif">Сибирская генерирующая компания</text>
</svg>
